<svg id="Layer_1" data-name="Layer 1" xmlns="http://www.w3.org/2000/svg" width="137.06" height="17.59" viewBox="0 0 137.06 17.59"><path d="M3.09,3V14.56H2.21V2.65A2.51,2.51,0,0,0,1.75,1,1.81,1.81,0,0,0,.22.44H0V0H1.43A4.11,4.11,0,0,1,3.16.33a3.56,3.56,0,0,1,1.25,1l7.73,9.6V0H13V14.79h-.44Z" fill="#3f7171"/><path d="M26.39,14.09a4.07,4.07,0,0,1-1.65-2.28l-.55-1.44H18l-1.77,4.19h-1L21.43,0h.66l4.85,11.81a5.92,5.92,0,0,0,1,1.75,2.22,2.22,0,0,0,1.39.56v.44a3,3,0,0,1-.88.11A4.22,4.22,0,0,1,26.39,14.09Zm-8-4.6h5.4L21.1,3.09Z" fill="#3f7171"/><path d="M28.58,17.15A1.67,1.67,0,0,0,30.15,16a7.73,7.73,0,0,0,.52-3.18V0h2V12.84a8.52,8.52,0,0,1-.36,2.75,2.7,2.7,0,0,1-1.25,1.51,5.1,5.1,0,0,1-2.47.49Z" fill="#3f7171"/><path d="M37.26,14.35a1.16,1.16,0,0,1-.58-.76,5.71,5.71,0,0,1-.18-1.67V0h2V11.92a3.51,3.51,0,0,0,.31,1.66,1.31,1.31,0,0,0,1.24.54h.44v.44h-2A2.76,2.76,0,0,1,37.26,14.35Z" fill="#3f7171"/><path d="M43.16,2.65A3.44,3.44,0,0,0,42.85,1,1.28,1.28,0,0,0,41.62.44h-.44V0h5.73A10.2,10.2,0,0,1,51.1.79a3,3,0,0,1,1.77,3.07,2.85,2.85,0,0,1-.7,1.88A4.68,4.68,0,0,1,50,7.06a4.89,4.89,0,0,1,2.84,1.2,3.3,3.3,0,0,1,.8,2.33,3.15,3.15,0,0,1-1.75,3.1,9.65,9.65,0,0,1-4.31.87H43.16Zm4.09,4.08A4.31,4.31,0,0,0,49,6.39a3.22,3.22,0,0,0,1.31-1,2.61,2.61,0,0,0,.51-1.62,2.39,2.39,0,0,0-.6-1.66,3.61,3.61,0,0,0-1.51-1A5.7,5.7,0,0,0,46.8.77,7.21,7.21,0,0,0,45.15,1V6.73ZM50.35,13a2.69,2.69,0,0,0,1.09-2.3,2.68,2.68,0,0,0-1.07-2.29,5.21,5.21,0,0,0-3.12-.8h-2.1v5.87a7.27,7.27,0,0,0,2.1.31A5.22,5.22,0,0,0,50.35,13Z" fill="#3f7171"/><path d="M71.7,14.09A4,4,0,0,1,70,11.81l-.55-1.44H63.31l-1.77,4.19h-1L66.73,0h.66l4.86,11.81a5.73,5.73,0,0,0,1,1.75,2.24,2.24,0,0,0,1.39.56v.44a3,3,0,0,1-.88.11A4.21,4.21,0,0,1,71.7,14.09Zm-8.06-4.6h5.41L66.4,3.09Z" fill="#3f7171"/><path d="M76.42,2.65A3.56,3.56,0,0,0,76.11,1,1.31,1.31,0,0,0,74.87.44h-.44V0h2a2.76,2.76,0,0,1,1.22.21,1.23,1.23,0,0,1,.59.76,6.29,6.29,0,0,1,.17,1.68v4H85V0h2V11.92a3.39,3.39,0,0,0,.31,1.66,1.29,1.29,0,0,0,1.23.54H89v.44H87a2.76,2.76,0,0,1-1.22-.21,1.17,1.17,0,0,1-.59-.76A5.71,5.71,0,0,1,85,11.92V7.5H78.4v7.06h-2Z" fill="#3f7171"/><path d="M105.46,15.07a2.66,2.66,0,0,1-1.25-1.51,8.52,8.52,0,0,1-.36-2.75V2.32L98.33,14.56h-.44L92.15,2.1V14.56h-.88V0h2.09l5.3,11.47L103.85,0h2V10.81a7.9,7.9,0,0,0,.52,3.18,1.68,1.68,0,0,0,1.58,1.13v.44A5.1,5.1,0,0,1,105.46,15.07Z" fill="#3f7171"/><path d="M119.87,14.09a4.08,4.08,0,0,1-1.66-2.28l-.55-1.44h-6.18l-1.76,4.19h-1L114.9,0h.66l4.86,11.81a5.71,5.71,0,0,0,1,1.75,2.19,2.19,0,0,0,1.39.56v.44a3.1,3.1,0,0,1-.89.11A4.21,4.21,0,0,1,119.87,14.09Zm-8.06-4.6h5.41l-2.65-6.4Z" fill="#3f7171"/><path d="M124.59,2.65A3.44,3.44,0,0,0,124.28,1,1.31,1.31,0,0,0,123,.44h-.44V0h5.79q4.28,0,6.47,1.9a6.6,6.6,0,0,1,2.2,5.29,7.75,7.75,0,0,1-.93,3.85,6.3,6.3,0,0,1-2.75,2.6,9.63,9.63,0,0,1-4.42.92h-4.37ZM131.84,13a5.63,5.63,0,0,0,2.06-2.28,7.41,7.41,0,0,0,.75-3.43,7.43,7.43,0,0,0-.74-3.4A5.49,5.49,0,0,0,128.85.77a7.39,7.39,0,0,0-2.21.36V13.51a10.15,10.15,0,0,0,2.25.28A5.6,5.6,0,0,0,131.84,13Z" fill="#3f7171"/></svg>