<svg id="Layer_1" data-name="Layer 1" xmlns="http://www.w3.org/2000/svg" width="29.38" height="17.3" viewBox="0 0 29.38 17.3"><path d="M18.45,17.28H14.9a5.58,5.58,0,0,0,2-3.38A5.55,5.55,0,0,0,18.45,17.28Z" fill="#3f7171"/><path d="M12.2,11.16v6.12H9.63C6.68,12.19,3,5.72,0,.61H3.88l7.41,12.85A5.47,5.47,0,0,0,12,11.28Z" fill="#3f7171"/><path d="M29.38,17.28H25.07a8.45,8.45,0,0,0-5.85-7h4.14c-.52-1.6-1.94-5.93-2.48-7.58L21.43.61h2.49C25.41,5.17,27.9,12.8,29.38,17.28Z" fill="#3f7171"/><path d="M1.05,17.3a5.46,5.46,0,0,0-.2-2.13,6.09,6.09,0,0,1-.21,2A2.52,2.52,0,0,1,.9,13.6,2.53,2.53,0,0,1,1.05,17.3Z" fill="#3f7171"/><path d="M12.2,6.42a4.94,4.94,0,0,1,0-.94,6.1,6.1,0,0,1,.14-.94,5.54,5.54,0,0,1,.76-1.75,3.48,3.48,0,0,1,.28-.39L13.68,2c.11-.12.23-.23.35-.34l.19-.16.19-.16.19-.15.2-.13a4.63,4.63,0,0,1,.43-.24l.11,0,.12-.05.22-.08a4.19,4.19,0,0,1,.47-.14l.22.64-.4.19-.2.1-.19.1-.39.2-.38.2-.18.12-.18.12a3,3,0,0,0-.35.27c-.11.09-.21.2-.31.3s-.2.21-.29.33a6.27,6.27,0,0,0-.5.73,7.43,7.43,0,0,0-.37.81,6.2,6.2,0,0,0-.24.87,4.52,4.52,0,0,0-.11.9Z" fill="#3f7171"/><polygon points="15.71 2.17 15.9 0.97 15.17 0 18.01 0.44 15.71 2.17" fill="#3f7171"/></svg>