<svg id="Layer_1" data-name="Layer 1" xmlns="http://www.w3.org/2000/svg" width="393.6" height="43.04" viewBox="0 0 393.6 43.04"><path d="M7.83,8.91V35.64H5.13V6.48A5.29,5.29,0,0,0,4,2.92,4.69,4.69,0,0,0,.27,1.62H0V0H3.78A13.25,13.25,0,0,1,8.72.78a7.67,7.67,0,0,1,3.21,2.46l18.58,21.6V0h2.7V35.8H30.73Z" fill="#3f7171"/><path d="M65,34.43Q62.2,33,60.48,28.84l-1.24-3H44.87l-4.42,9.83H37.64L53.57,0H56L68.09,28.84q2.05,5,5.62,5.4v1.35a10,10,0,0,1-2.59.27A13.22,13.22,0,0,1,65,34.43ZM46,23.38h12.2L52.27,9.29Z" fill="#3f7171"/><path d="M71.12,41.42a4.76,4.76,0,0,0,3.8-2.57c.81-1.49,1.22-4.06,1.22-7.69V0h7V31.16a20.66,20.66,0,0,1-1,7.32A6.13,6.13,0,0,1,78.62,42a20.84,20.84,0,0,1-7.5,1Z" fill="#3f7171"/><path d="M92.28,7a8.57,8.57,0,0,0-.75-4.08C91,2.06,90,1.62,88.5,1.62H88V0h23.82q4.59,0,4.59,4.32V8.91h-1.62q0-3.35-1.7-4.91a7.21,7.21,0,0,0-5-1.57H99.3v13.5h14v2.43h-14V33.21h9.24a9,9,0,0,0,5.13-1.38,9.9,9.9,0,0,0,3.4-4.78l1.46.54L117,31.86a7.27,7.27,0,0,1-1.67,2.86,4.31,4.31,0,0,1-3,.92h-20Z" fill="#3f7171"/><path d="M124.68,7a8.57,8.57,0,0,0-.75-4.08c-.51-.88-1.51-1.32-3-1.32h-.54V0h23.82q4.59,0,4.59,4.32V8.91h-1.62q0-3.35-1.7-4.91a7.21,7.21,0,0,0-5-1.57h-8.7v13.5h14v2.43h-14V33.21h9.24a9,9,0,0,0,5.13-1.38,9.9,9.9,0,0,0,3.4-4.78l1.46.54-1.57,4.27a7.27,7.27,0,0,1-1.67,2.86,4.31,4.31,0,0,1-3,.92h-20Z" fill="#3f7171"/><path d="M157.08,7a8.57,8.57,0,0,0-.75-4.08c-.51-.88-1.51-1.32-3-1.32h-.54V0h14.58a29.82,29.82,0,0,1,11.37,1.89q4.56,1.89,4.56,7.56a6.85,6.85,0,0,1-2,4.67,10.92,10.92,0,0,1-5.53,3.11q9.12.91,9.12,8.53,0,5.61-4.48,7.75A26.72,26.72,0,0,1,169,35.64H157.08Zm11.07,9.13a8.53,8.53,0,0,0,5.54-1.65q2-1.65,2-5.32t-2.4-5.37a10.29,10.29,0,0,0-6-1.65,8.87,8.87,0,0,0-2.26.22l-1,.16V16.15Zm0,17.33q4.48,0,6.83-1.94A6.75,6.75,0,0,0,177.33,26q0-7.46-9.18-7.45H164.1V32.94a5.31,5.31,0,0,0,1.08.27,12.27,12.27,0,0,0,2.7.27Z" fill="#3f7171"/><path d="M228,34.43c-1.84-1-3.33-2.82-4.49-5.59l-1.24-3H207.9l-4.43,9.83h-2.81L216.59,0H219l12.1,28.84q2.06,5,5.61,5.4v1.35a10,10,0,0,1-2.59.27A13.15,13.15,0,0,1,228,34.43Zm-19-11h12.21L215.3,9.29Z" fill="#3f7171"/><path d="M240.3,7a8.56,8.56,0,0,0-.76-4.08c-.5-.88-1.51-1.32-3-1.32H236V0h6.48a5.64,5.64,0,0,1,3,.65,3.53,3.53,0,0,1,1.45,2.13A15.84,15.84,0,0,1,247.32,7v8.91H261.9V0h7V28.62a8.55,8.55,0,0,0,.75,4.08c.51.88,1.51,1.32,3,1.32h.54v1.62h-6.48a5.82,5.82,0,0,1-3-.62,3.47,3.47,0,0,1-1.46-2.11,16.18,16.18,0,0,1-.43-4.29V18.36H247.32V35.64h-7Z" fill="#3f7171"/><path d="M311.39,35.34c-1.71-1.81-2.57-4.78-2.57-8.88V7.34L297,35.64h-1.79L280.74,6.26V35.64H278V0h6.59L297.7,26.51,308.77,0h7.07V26.46a23.34,23.34,0,0,0,.87,7.45,4,4,0,0,0,3.07,2.81v1.35Q314,38.07,311.39,35.34Z" fill="#3f7171"/><path d="M348.62,34.43q-2.76-1.44-4.48-5.59l-1.24-3H328.53l-4.43,9.83h-2.81L337.23,0h2.43l12.09,28.84q2.06,5,5.62,5.4v1.35a10,10,0,0,1-2.59.27A13.22,13.22,0,0,1,348.62,34.43Zm-18.95-11h12.2L335.93,9.29Z" fill="#3f7171"/><path d="M360.93,7a8.44,8.44,0,0,0-.76-4.08c-.5-.88-1.51-1.32-3-1.32h-.54V0H371.3q10.9,0,16.6,4.62t5.7,13A18.24,18.24,0,0,1,391.2,27a16,16,0,0,1-7.13,6.34,26.11,26.11,0,0,1-11.37,2.27H360.93Zm11.61,26.46a12.15,12.15,0,0,0,6.72-1.89,12.51,12.51,0,0,0,4.59-5.45,19.64,19.64,0,0,0,1.65-8.32,19.33,19.33,0,0,0-1.65-8.24,12.91,12.91,0,0,0-4.61-5.48,12.2,12.2,0,0,0-6.81-1.94H372a14.6,14.6,0,0,0-2.86.22L368,2.54V33.1l1.19.22a20.5,20.5,0,0,0,2.86.16Z" fill="#3f7171"/></svg>